<?xml version="1.0" encoding="UTF-8"?> <!-- Generator: Adobe Illustrator 26.0.2, SVG Export Plug-In . SVG Version: 6.00 Build 0) --> <svg xmlns="http://www.w3.org/2000/svg" xmlns:xlink="http://www.w3.org/1999/xlink" version="1.1" id="Layer_1" x="0px" y="0px" viewBox="0 0 675.2 605.4" style="enable-background:new 0 0 675.2 605.4;" xml:space="preserve"> <style type="text/css"> .st0{fill:#093653;} </style> <g> <path class="st0" d="M580.5,281.4c-16-15.7-38.4-22.3-60.2-28.7c-25-7.4-48.6-14.3-63.2-33.9c-11.3-15.3-14.6-35.7-17.8-55.5 c-4.2-26.2-8.2-51-29.4-64.7c-19.2-12.5-43.7-8.8-67.5-5.2c-26.3,4-51.1,7.7-67.8-9.5c-2.9-3.2-5.6-6.6-7.9-10.3 c-3.5-5.2-7.2-10.5-12.4-14.3c-13.9-10.1-25.9-5.6-36.7,0.6c-21.6,12.7-38.9,32.4-48.5,55.5c-4.9,11.9-14,20.5-25.6,24.4 c-7.8,2.6-16.9,3.4-25.7,4.1l-0.2,0c-18.7,1.6-38,3.2-44.8,22.9c-1.2,3.4-1.8,7-1.9,10.7c-2.2,47.1-1.6,100,32,131.5 c11.5,10.8,26.2,18.2,40.4,25.3l0.7,0.3c20.4,10.2,39.7,19.8,50.3,38.5c9.3,16.3,9.4,35,9.4,54.7l0,0.1c0,12,0.1,24.4,2.4,36.1 c6.9,35.2,35.7,65.1,71.5,74.3c7.9,2,16.1,3,24.4,3c26.5,0,53.7-10.1,73.8-28.2l2.2-2c5.9-5.9,11.6-12.2,16.9-18.6 c11-13,22.3-26.4,38-32.8c22-8.9,47-2,71.2,4.6c26.8,7.4,54.6,15.1,77.8,0.5c2.5-1.6,4.9-3.4,7.1-5.4 c23.2-20.9,23.2-59.6,20.5-90.9C606.7,334.9,602.3,302.8,580.5,281.4z M588.3,458.8c-2.2,2-4.5,3.7-7,5.3 c-22.8,14.3-50.3,6.7-77-0.6c-24.3-6.7-49.5-13.7-71.8-4.6c-15.9,6.5-27.3,20-38.4,33.1c-5.3,6.4-10.9,12.7-16.8,18.5l-2.2,1.9 c-26.2,23.6-64.4,33.4-97.3,25c-35.5-9.1-63.9-38.6-70.8-73.5c-2.3-11.7-2.4-24-2.4-36l0-0.1c-0.1-19.9-0.1-38.7-9.6-55.2 c-10.8-19-30.2-28.7-50.8-38.9l-0.6-0.3c-14.1-7.1-28.8-14.4-40.1-25.1c-33.3-31.2-33.8-83.8-31.6-130.7c0.1-3.5,0.8-7,1.9-10.4 c6.6-19.1,25.6-20.7,44-22.3l0.2,0c8.9-0.7,18-1.5,26-4.2c11.8-4,21.1-12.8,26.2-25c9.6-22.9,26.7-42.5,48.1-55 c6-3.5,12.4-6.4,19.3-6.4c5.1,0,10.5,1.6,16.2,5.7c5.1,3.7,8.7,9,12.2,14.1c2.4,3.7,5.1,7.2,8,10.4c17,17.6,42.1,13.8,68.7,9.8 c23.5-3.5,47.9-7.2,66.8,5.1c20.8,13.5,24.8,38.1,28.9,64c3.2,19.9,6.5,40.4,18,55.9c14.7,19.8,38.5,26.8,63.7,34.2 c21.6,6.4,44,12.9,59.7,28.5c21.5,21.2,25.9,53.1,28.7,86.7C611.1,399.9,611.2,438.2,588.3,458.8z"></path> <path class="st0" d="M562.2,300.1c-11.3-11.1-29.7-16.5-49.2-22.3l-0.1,0.5l0-0.5c-26.7-7.9-56.9-16.8-76.6-43.3 c-15.1-20.3-19-44.9-22.6-66.6l0-0.2c-4-24.6-7.1-40-17.8-47c-10.9-7.1-29.6-4.3-49.4-1.3c-28.7,4.3-64.4,9.7-90.4-17.2 c-3.9-4.2-7.5-8.8-10.7-13.7c-2.5-3.7-4.7-6.8-6.2-7.9c-0.4-0.3-0.9-0.6-1.3-0.8l-0.3-0.2l-0.4,0.1c-2.2,0.7-4.3,1.7-6.3,2.9 c-5.3,3-10.2,6.6-14.7,10.7c-9.8,8.9-17.7,20.1-22.8,32.3c-3.9,9.6-10.1,18.3-17.7,25.3c-6.9,6.2-14.9,10.9-23.7,13.8 c-10.4,3.5-21.1,4.4-30.6,5.3l-1.4,0.1c-9.6,0.8-19.1,1.8-21.6,4l-0.1,0.1c-0.3,0.4-0.5,0.9-0.7,1.4c-0.3,1.1-0.5,2.2-0.5,3.3 C95,222,95.2,266.2,120.7,290c8.9,8.3,21.4,14.6,34.7,21.2l0.1,0.1c21.9,10.9,46.8,23.3,61.4,48.9c12.7,22.2,12.8,46.3,12.8,67.6 l0,0.8c0.1,11,0.1,21.4,1.9,30.5c5,25.2,26.5,47.4,52.4,54.1c5.9,1.5,12,2.2,18.2,2.2c20,0,40.7-7.7,56.1-21.6l1.6-1.5 c5.3-5.3,10.3-10.9,15-16.6c6.5-7.6,13.1-15.5,21.1-22.8c7.9-7.4,17-13.2,27-17.4c30.2-12.3,60.9-3.8,88,3.6 c27.1,7.5,44.4,11.4,56.9,3.6c1.2-0.8,2.4-1.7,3.5-2.7c4.1-3.7,16.6-14.9,12-69.2C581,342.3,577.6,315.3,562.2,300.1z M570.8,439.5 c-1,0.9-2.2,1.8-3.4,2.5c-12.2,7.6-29.3,3.7-56.1-3.7c-27.2-7.5-58.1-16-88.6-3.6c-10.1,4.2-19.2,10.1-27.2,17.5 c-8.1,7.3-14.8,15.2-21.2,22.9c-4.7,5.8-9.7,11.3-15,16.5l-1.6,1.5c-19.9,17.9-48.7,25.4-73.4,19.1c-25.5-6.6-46.8-28.5-51.7-53.3 c-1.8-9.1-1.8-19.4-1.9-30.4l0-0.8c-0.1-21.4-0.2-45.6-13-68c-14.8-25.9-39.8-38.4-61.8-49.3l-0.2,0.4l0.1-0.5 c-13.2-6.6-25.7-12.8-34.5-21C96.2,265.7,96,221.8,97.9,178.8c0-1,0.2-2,0.5-3c0.1-0.4,0.3-0.7,0.5-1.1c2.5-2.1,14.5-3.2,21-3.7 l1.4-0.1c9.5-0.9,20.4-1.8,30.8-5.3c8.9-3,17-7.7,24-14c7.8-7.1,14-15.9,18-25.6c5.1-12.1,12.9-23.1,22.6-31.9 c4.5-4,9.3-7.6,14.6-10.6c1.9-1.2,3.9-2.2,6-2.8l0,0c0.4,0.2,0.8,0.5,1.2,0.7c1.4,1,4,4.9,5.9,7.7c3.2,4.9,6.8,9.6,10.8,13.8 c26.4,27.3,62.4,21.9,91.3,17.5c19.6-2.9,38.1-5.7,48.7,1.2c10.3,6.7,13.5,22,17.4,46.3l0,0.2c3.5,21.8,7.5,46.6,22.7,67 c19.9,26.8,50.3,35.8,77.1,43.7l0.1,0c19.4,5.7,37.7,11.1,48.8,22c15.2,15,18.6,41.8,21,70.3C587,424.8,574.8,435.8,570.8,439.5z"></path> <path class="st0" d="M448.4,291.9c-14-12-29.8-25.6-41.6-56.6c-6.9-18.1-18.3-31.2-33.8-38.7c-12.3-6-24.7-7.5-36.8-8.9 c-13.6-1.6-25.3-3-34.3-10.5c-1-0.8-2-1.7-3.1-2.6c-10.6-9.2-28.3-24.5-48.8-17.7c-3.9,1.3-7.4,3.3-10.5,6 c-11,9.9-11.1,24.6-11.2,36.3c-0.1,6.9-0.4,11.1-0.9,12.6c-1.7,0.7-6.9,1.2-8.9,1.4l-0.7,0.1c-1.3,0.1-2.6,0.3-3.8,0.4 c-7,0.9-16.9,3.3-24.6,10.2c-3,2.7-5.4,5.8-7.1,9.4c-1.7,3.6-2.7,7.4-2.9,11.4c-0.4,6.7,1.3,13.8,5,21.2 c9.3,18.6,24.9,29.5,38.7,39.2l0.2,0.1c6.4,4.5,12.4,8.7,17.1,13.2c12,11.6,18.6,29.2,25.7,47.8c4.3,11.4,8.7,23.1,14.7,34.6 c2.1,4.1,7.8,15.1,19.6,20.9c4.5,2.3,9.4,3.4,14.3,3.4c1.5,0,2.9-0.1,4.4-0.3c6.5-0.9,12.4-3.7,17.2-8.1c1.6-1.4,3-3,4.3-4.7 c2.3-3.1,4.3-6.4,6-9.8c0.8-1.8,1.9-3.5,3-5c0.2-0.2,0.3-0.4,0.5-0.5c3.1-2.8,10.6-3.5,19.5-1.7c4,0.8,8.2,1.9,12.7,3.2l0.8,0.2 c9.4,2.6,20.1,5.5,31.4,5.9c18.3,0.6,35.4-5.4,48.2-16.9c0.6-0.5,1.1-1,1.7-1.6c9.7-9.4,15.3-21,16.1-33.4 C482.5,321.3,463.6,305,448.4,291.9z M479.4,352.3c-0.8,12.2-6.3,23.5-15.8,32.8c-0.6,0.5-1.1,1-1.7,1.5 c-12.6,11.3-29.4,17.3-47.5,16.7c-11.2-0.4-21.8-3.3-31.3-5.9l-0.7-0.2c-4.5-1.2-8.7-2.4-12.8-3.2c-9.2-1.8-17-1.1-20.4,1.9 c-0.2,0.2-0.4,0.4-0.6,0.7c-1.2,1.6-2.2,3.4-3.1,5.2c-1.7,3.4-3.7,6.6-5.9,9.6c-1.3,1.6-2.7,3.2-4.2,4.5c-4.6,4.3-10.4,7-16.6,7.9 c-6.2,0.9-12.5-0.2-18.1-3c-11.4-5.7-17-16.4-19.1-20.5c-6-11.5-10.4-23.2-14.7-34.5c-7.1-18.7-13.8-36.5-25.9-48.2 c-4.7-4.5-10.7-8.8-17.2-13.3l-0.2-0.1c-13.7-9.6-29.2-20.4-38.4-38.8c-3.6-7.2-5.2-14.2-4.9-20.7c0.2-3.8,1.1-7.6,2.8-11.1 c1.7-3.5,4-6.5,6.8-9.1c7.4-6.7,17.2-9.1,24-10c1.3-0.2,2.5-0.3,3.8-0.4l0.7-0.1c3.6-0.4,7.9-0.9,9.4-1.6l0.2-0.1l0.1-0.2 c0.9-1.9,1-8.4,1.1-13.1c0.1-11.6,0.2-26,10.9-35.6c3-2.6,6.4-4.6,10.1-5.8c3.4-1.1,6.8-1.6,10-1.6c15.7,0,29.2,11.7,37.9,19.2 c1.1,0.9,2.1,1.8,3.1,2.6c9.1,7.7,21,9.1,34.9,10.8c11.9,1.4,24.3,2.9,36.4,8.8c15.2,7.4,26.4,20.3,33.3,38.2 c11.9,31.2,27.9,44.9,41.9,57C462.8,305.6,481.5,321.7,479.4,352.3z"></path> <path class="st0" d="M325.9,222.5c-21.1-10.3-38.8-9.9-51.1,1.2c-15.8,14.2-14.2,35.5-10,50.9c4.7,17.3,15.3,36.7,27.8,50.6 c12.7,14.1,25.4,22.9,37.9,26.4c3.9,1.1,7.7,1.6,11.5,1.6c10.7,0,20.9-4.3,30.4-12.9c25.5-23,25.5-53.5,0.2-81.6 C359,243.7,341.5,230.1,325.9,222.5z M371.8,339.6c-12.6,11.4-26.4,15.1-41,11.1c-12.3-3.4-24.8-12.2-37.4-26.1 c-12.4-13.8-23-33-27.6-50.2c-4.1-15.1-5.7-36,9.7-49.9c6.2-5.6,13.8-8.4,22.6-8.4c8.2,0,17.4,2.4,27.4,7.3 c15.5,7.5,32.8,21,46.4,36C396.8,287.1,396.8,317.1,371.8,339.6z"></path> <path class="st0" d="M645.1,324.3c-16.6-31.8-41.8-62.7-67.5-82.8c-27.4-21.4-42.5-34.7-54.6-52.8c-12.2-18.2-21.2-40.8-33.3-83.4 c-17.2-60.7-64.5-54-110.3-47.5c-15.6,2.2-31.8,4.5-46.3,3.9c-30.8-1.2-55.5-16.6-75.3-29c-16.4-10.3-29.4-18.4-39.2-13.8 c-9.1,4.3-25.9,18.1-45.4,34.1c-25.1,20.7-53.5,44.1-70.3,50.4c-26.7,10.1-48.1,25.6-63.5,46c-13.5,17.8-22.2,39.3-25.2,62.3 c-5.8,43.8,9.3,88.3,36.8,108.2c27.6,20,42,34.8,53.1,54.8c12.2,22,20.7,51.4,32.3,93.8c11.5,41.9,41.3,76.5,83.7,97.3 c26.6,13,56.3,19.8,85.4,19.8c14.2,0,28.3-1.6,41.8-4.8c36.6-8.8,56.5-16.3,74.1-22.9c22.2-8.4,39.8-15,81.3-20.6 c41.4-5.6,76.5-32.1,98.8-53.3c28.1-26.9,48.1-57,57.5-76.3C668.2,388.7,663.3,359.1,645.1,324.3z M658,407.3 c-9.4,19.2-29.3,49.2-57.3,76c-22.1,21.1-57.1,47.5-98.2,53.1c-41.6,5.6-59.2,12.3-81.5,20.6c-17.6,6.6-37.5,14.1-74,22.8 c-41.1,9.8-87.3,4.4-126.6-14.8c-42.2-20.7-71.8-55-83.2-96.7c-11.7-42.4-20.2-71.9-32.4-94c-11.2-20.2-25.6-35.1-53.4-55.2 C24.2,299.5,9.3,255.4,15.1,212c3-22.8,11.7-44.2,25-61.9c15.3-20.3,36.6-35.7,63.1-45.7c16.9-6.4,45.4-29.9,70.6-50.6 c18.6-15.3,36.2-29.8,45.2-34c9.3-4.4,22.1,3.6,38.3,13.7C277.1,46,302,61.5,333,62.7c14.6,0.5,30.8-1.7,46.5-4 c22.7-3.2,46.1-6.5,65.5-1.5c21.8,5.6,36,21.4,43.6,48.3c12.1,42.8,21.2,65.5,33.4,83.7c12.2,18.2,27.4,31.6,54.8,53 C629.6,283.5,677.3,367.7,658,407.3z"></path> </g> </svg> 